<?xml version="1.0" standalone="no"?><!DOCTYPE svg PUBLIC "-//W3C//DTD SVG 1.1//EN" "http://www.w3.org/Graphics/SVG/1.1/DTD/svg11.dtd"><svg t="1744612171088" class="icon" viewBox="0 0 1024 1024" version="1.1" xmlns="http://www.w3.org/2000/svg" p-id="18080" width="32" height="32" xmlns:xlink="http://www.w3.org/1999/xlink"><path d="M505.6 561.28m-334.72 0a334.72 334.72 0 1 0 669.44 0 334.72 334.72 0 1 0-669.44 0Z" fill="#DFE8F4" p-id="18081"></path><path d="M160 211.68a112 112 0 0 0-12.96 141.44 17.6 17.6 0 0 0 26.72 1.92l129.6-129.6a17.6 17.6 0 0 0-2.08-26.72 111.04 111.04 0 0 0-141.28 12.96z" fill="#CCD8E5" p-id="18082"></path><path d="M505.6 561.28m-274.4 0a274.4 274.4 0 1 0 548.8 0 274.4 274.4 0 1 0-548.8 0Z" fill="#CCD8E5" p-id="18083"></path><path d="M505.12 553.92a14.24 14.24 0 0 1-14.24-14.24V384a14.24 14.24 0 0 1 14.24-14.4 14.4 14.4 0 0 1 14.4 14.4v156a14.24 14.24 0 0 1-14.4 13.92z" fill="#FFFFFF" p-id="18084"></path><path d="M505.6 561.28m-35.84 0a35.84 35.84 0 1 0 71.68 0 35.84 35.84 0 1 0-71.68 0Z" fill="#156CDD" p-id="18085"></path><path d="M629.6 597.12H505.6v-71.68h124a35.84 35.84 0 0 1 36 35.84 35.84 35.84 0 0 1-36 35.84z" fill="#156CDD" p-id="18086"></path><path d="M645.6 288.8a91.68 91.68 0 0 1 91.52-91.52h54.24a35.04 35.04 0 0 0 35.04-35.2V144a13.28 13.28 0 0 0-13.28-13.28h-76a159.04 159.04 0 0 0-158.88 158.88v70.88a8.32 8.32 0 0 0 13.76 6.4l90.56-77.28z" fill="#0795FF" p-id="18087"></path><path d="M881.44 201.76l-74.24 87.04h21.6a91.84 91.84 0 0 1-91.68 91.68h-54.24A35.04 35.04 0 0 0 647.84 416v18.88a13.28 13.28 0 0 0 13.28 13.28h76A158.88 158.88 0 0 0 896 288.8v-81.76a8.16 8.16 0 0 0-14.56-5.28z" fill="#156CDD" p-id="18088"></path></svg>