<svg xmlns="http://www.w3.org/2000/svg" width="192" height="192" fill="none" viewBox="0 0 192 192">
  <path fill="#FF4F4F" fill-opacity=".65" stroke="#333" stroke-linecap="round" stroke-linejoin="round" stroke-width="4" d="M95.75 189.5c51.778 0 93.75-34.627 93.75-77.344 0-30.197-20.977-55.308-51.562-68.044l-16.407 7.107L123.875 77l-30.469-9.375L62.937 77V51.219l-14.062-7.107C20.853 57.486 2 83.53 2 112.156 2 154.873 43.972 189.5 95.75 189.5Z"/>
  <path fill="#34D046" fill-opacity=".86" stroke="#333" stroke-linecap="round" stroke-linejoin="round" stroke-width="4" d="m93.406 2 17.855 23.986L152 29.703 122.295 51.14l8.611 30.548-37.5-14.062-37.5 14.063 8.611-30.549-29.704-21.436 40.739-3.717L93.406 2Z"/>
</svg>
