<?xml version="1.0" standalone="no"?><!DOCTYPE svg PUBLIC "-//W3C//DTD SVG 1.1//EN" "http://www.w3.org/Graphics/SVG/1.1/DTD/svg11.dtd"><svg t="1735387406721" class="icon" viewBox="0 0 1024 1024" version="1.1" xmlns="http://www.w3.org/2000/svg" p-id="7427" id="mx_n_1735387406722" data-darkreader-inline-fill="" xmlns:xlink="http://www.w3.org/1999/xlink" width="200" height="200"><path d="M3.2 939.488V176.416c0.576-0.736 1.344-1.312 1.344-2.048C6.4 156.352 14.24 140.8 26.016 127.552c19.36-21.952 44.064-32.256 73.28-32.256h89.696V24.512c0-2.336 0.704-4.8 1.024-7.136 1.312-8.608 8.864-10.624 14.976-14.08h13.536c14.4 5.088 18.016 16.416 17.6 30.368-0.608 17.312-0.16 34.752-0.16 52.032v9.184h553.12c0-20.512 0.448-40.576-0.128-60.64-0.48-14.24 2.624-25.728 17.6-31.136h13.472c12.704 5.248 17.184 14.816 16.352 28.352-0.864 15.136-0.32 30.112-0.32 45.216v18.592h8.128c28.256 0 56.448-0.128 84.64 0.16 5.856 0 11.616 0.288 17.312 1.44 29.696 6.816 52.736 22.848 66.144 50.88 3.328 6.976 5.664 14.528 8.48 21.824V946.24c-0.896 2.432-1.952 5.056-2.816 7.68-11.232 33.92-33.728 55.68-68.736 63.872-3.328 0.672-6.528 1.888-9.76 2.752H85.76c-0.416-0.48-0.704-1.184-1.312-1.376-13.088-0.8-24.832-5.504-36.032-12.32-17.152-10.304-30.048-24.16-37.344-42.912-3.072-7.744-5.248-16.16-7.872-24.512v0.064z m47.264-565.376v552c0 26.112 20.064 47.328 47.52 47.328 276.352 0.128 552.704 0.128 829.088 0 27.328 0 47.68-20.384 47.68-47.808 0.128-181.312 0.128-362.592 0.128-543.872v-7.552c-308.352-0.096-615.936-0.096-924.416-0.096z m0-47.808h924.128c0.16-1.312 0.288-2.176 0.288-3.072 0-45.056 0.128-90.112-0.128-135.168 0-3.936-0.864-8.032-2.176-11.648-7.296-22.688-23.68-32.864-45.376-33.568-28.512-0.736-56.992-0.288-85.504-0.16-1.76 0-3.424 0.288-5.504 0.576 0 24.288 0.32 48.128-0.288 72.128a22.24 22.24 0 0 1-5.216 13.088c-8 8.576-18.016 9.312-28.736 5.088-7.2-2.752-12.96-11.616-12.96-20.768-0.224-18.88 0-37.952 0-56.864v-12.544H235.808c0 22.4 0.288 44.192-0.16 66.016-0.288 15.136-5.088 23.712-21.216 26.624-9.728 1.728-26.176-5.408-26.016-20.512 0.288-21.632 0.128-43.168 0.128-64.992v-7.552h-85.44c-4.224 0-8.288 0.864-12.672 1.184-25.312 1.728-40.832 27.168-40.544 47.52 0.576 42.464 0.128 84.704 0.128 127.232 0.448 1.856 0.448 4.48 0.448 7.392zM3.2 939.488c2.624 8.128 4.96 16.672 8 24.672 7.264 18.72 20.192 32.672 37.344 42.88 11.2 6.656 22.944 11.328 36.032 12.384 0.448 0 0.864 0.672 1.312 1.248H3.328C3.2 993.568 3.2 966.656 3.2 939.488z m936.288 81.184c3.36-0.8 6.56-2.016 9.792-2.752 35.04-8.288 57.408-30.048 68.704-63.744 0.864-2.688 1.952-5.12 2.816-7.744v74.432c-27.2-0.192-54.176-0.192-81.312-0.192z" p-id="7428"></path><path d="M370.144 770.144c36.16-15.168 88.064-25.664 155.744-31.488 0-1.152 0.576-1.76 1.76-1.76v-1.76c12.832-16.32 22.144-29.152 28-38.496 2.336-5.824-0.608-9.312-8.736-10.496-18.656 1.184-42.016 9.952-70.016 26.24-17.504 8.192-29.184 7.584-35.008-1.76a44.928 44.928 0 0 1-1.76-14.016 232.064 232.064 0 0 1-20.992 24.512 236.992 236.992 0 0 0-64.736 1.76c4.672-5.824 12.256-14.56 22.752-26.24a7519.296 7519.296 0 0 0 75.264-89.248c-28 7.008-52.512 15.744-73.504 26.24-18.656 8.192-30.912 5.856-36.736-7.008-3.488-15.168 5.824-27.392 28-36.736 32.672-9.312 81.088-18.048 145.248-26.24 0-4.672-0.608-11.648-1.76-20.992v-14.016c0-9.312 1.76-15.744 5.248-19.264-31.488 3.488-59.488 10.496-84 20.992-20.992 5.856-33.248 3.488-36.736-7.008-2.336-15.168 5.824-25.664 24.512-31.488 22.144-7.008 58.336-11.072 108.512-12.256 50.144-2.304 93.92-1.152 131.264 3.488l7.008 15.744c-50.144 0-88.672 1.76-115.488 5.248 8.16 4.672 12.832 12.832 14.016 24.512v29.76a1225.824 1225.824 0 0 1 147.008-1.76l5.248 15.744c-35.008 0-68.256 1.76-99.744 5.248 3.488 0 8.736 1.76 15.744 5.248 46.656 36.192 85.152 67.68 115.488 94.496-19.84 0-39.648 3.488-59.488 10.496-24.512-16.32-59.488-43.744-104.992-82.24-8.16-8.16-7.584-16.32 1.76-24.512a48.64 48.64 0 0 0-10.496 1.76h-8.736c0 38.496-0.608 65.344-1.76 80.512 17.504 1.184 31.488 5.248 42.016 12.256 14.016 8.192 16.896 18.688 8.736 31.488-5.856 8.192-14.016 18.08-24.512 29.76 43.168 0 89.248 2.944 138.24 8.736l5.248 19.264c-61.856-4.672-112.608-5.248-152.256-1.76 3.488 37.344 0.608 71.744-8.736 103.264-24.512 0-43.168 1.152-56 3.488 12.832-35.008 15.744-68.256 8.736-99.744-60.672 9.344-109.664 24.512-147.008 45.504-19.84 8.16-33.248 7.008-40.256-3.488-4.768-17.472 4.576-31.456 27.904-41.984z m143.52-108.48c1.152-17.504 1.76-36.16 1.76-56 0 1.184-0.608 2.336-1.76 3.488 0 1.184-0.608 2.336-1.76 3.488a797.504 797.504 0 0 1-52.512 64.736c11.68-5.792 29.76-11.04 54.272-15.712z" p-id="7429"></path></svg>