<svg xmlns="http://www.w3.org/2000/svg" width="225" height="225" fill="none" viewBox="0 0 225 225">
  <path fill="#FF4F4F" stroke="#333" stroke-linecap="round" stroke-linejoin="round" stroke-width="4" d="M112.5 206.25c51.778 0 93.75-34.627 93.75-77.344 0-30.197-20.977-55.308-51.562-68.044l-16.407 7.107 2.344 25.781-30.469-9.375-30.469 9.375V67.969l-14.062-7.106C37.603 74.236 18.75 100.28 18.75 128.906c0 42.717 41.972 77.344 93.75 77.344Z"/>
  <path fill="#34D046" stroke="#333" stroke-linecap="round" stroke-linejoin="round" stroke-width="4" d="m110.156 18.75 17.855 23.986 40.739 3.717-29.705 21.436 8.611 30.549-37.5-14.063-37.5 14.063 8.611-30.549-29.704-21.436 40.739-3.717 17.854-23.986Z"/>
</svg>
